<svg xmlns="http://www.w3.org/2000/svg" xmlns:xlink="http://www.w3.org/1999/xlink" xmlns:lucid="lucid" width="1760" height="1250"><g transform="translate(0 0)" lucid:page-tab-id="m-5o7ONTd-nK"><path d="M80 439.07v-240h42.8v240z" stroke="#b2b2b2" stroke-width="2" fill="#4397ff"/><path d="M80 439.07h42.8v240H80z" stroke="#b2b2b2" stroke-width="2" fill="#3fb8b9"/><path d="M80 679.07h42.8v240H80z" stroke="#b2b2b2" stroke-width="2" fill="#ff8839"/><path d="M122.8 1160.93H80V919.07h42.8z" stroke="#b2b2b2" stroke-width="2" fill="#eb6b6b"/><path d="M122.8 199.07h1547.65v240H122.8zM122.8 439.07h1547.65v240H122.8zM122.8 679.07h1547.65v240H122.8zM1670.45 919.07v241.86H122.8V919.07z" stroke="#b2b2b2" stroke-width="2" fill="none"/><use xlink:href="#a" transform="matrix(-1.8369701987210297e-16,-1,1,-1.8369701987210297e-16,80,439.0745740986559) translate(80.80013176543538 26.13446718044114)"/><use xlink:href="#b" transform="matrix(-1.8369701987210297e-16,-1,1,-1.8369701987210297e-16,80,679.0745740986558) translate(63.48524743850946 26.13446718044114)"/><use xlink:href="#c" transform="matrix(-1.8369701987210297e-16,-1,1,-1.8369701987210297e-16,80,919.0745740986558) translate(92.4184835164024 26.13446718044114)"/><use xlink:href="#d" transform="matrix(-1.8369701987210297e-16,-1,1,-1.8369701987210297e-16,79.99999999999989,1160.9254259013442) translate(90.81159572740425 26.13446718044114)"/><path d="M840 252.64a8 8 0 0 1 8-8h144a8 8 0 0 1 8 8v122.5c-26.72-21.78-43.36-21.78-53.44-21.78-16 0-37.28 21.8-53.28 21.8-9.92 0-26.72 0-53.28-21.8z" stroke="#000" stroke-opacity="0" stroke-width="2" fill="#4397ff"/><use xlink:href="#e" transform="matrix(1,0,0,1,845.5609999999999,250.20501533018873) translate(58.50822744526792 20.186105530457382)"/><use xlink:href="#f" transform="matrix(1,0,0,1,845.5609999999999,250.20501533018873) translate(19.601589387243553 54.790127144417866)"/><use xlink:href="#g" transform="matrix(1,0,0,1,845.5609999999999,250.20501533018873) translate(28.212543839791596 89.39414875837836)"/><use xlink:href="#h" transform="matrix(1,0,0,1,845.5609999999999,250.20501533018873) translate(92.23684970292288 89.39414875837836)"/><path d="M452.2 78.4a8 8 0 0 1 8-8h836.74a8 8 0 0 1 8 8v25.16a8 8 0 0 1-8 8H460.2a8 8 0 0 1-8-8z" stroke="#000" stroke-opacity="0" stroke-width="2" fill="#fff" fill-opacity="0"/><use xlink:href="#i" transform="matrix(1,0,0,1,456.1891668241444,74.40068153262868) translate(314.3655555555556 25.782777777777778)"/><use xlink:href="#j" transform="matrix(1,0,0,1,456.1891668241444,74.40068153262868) translate(373.9482716049383 25.782777777777778)"/><use xlink:href="#k" transform="matrix(1,0,0,1,456.1891668241444,74.40068153262868) translate(488.37913580246914 25.782777777777778)"/><path d="M646.32 110.2h471.72M646.34 110.2h-1.02M1118.02 110.2h1.02" stroke="#a9afb8" stroke-width="2" fill="none"/><path d="M440 119.56a8 8 0 0 1 8-8h837.7a8 8 0 0 1 8 8v2.84a8 8 0 0 1-8 8H448a8 8 0 0 1-8-8z" stroke="#000" stroke-opacity="0" stroke-width="2" fill="#fff" fill-opacity="0"/><use xlink:href="#l" transform="matrix(1,0,0,1,444,115.5559054895275) translate(367.3980144032922 14.917037037037037)"/><use xlink:href="#m" transform="matrix(1,0,0,1,444,115.5559054895275) translate(375.8959567901235 14.917037037037037)"/><use xlink:href="#n" transform="matrix(1,0,0,1,444,115.5559054895275) translate(388.34544238683134 14.917037037037037)"/><use xlink:href="#o" transform="matrix(1,0,0,1,444,115.5559054895275) translate(425.73638888888894 14.917037037037037)"/><use xlink:href="#p" transform="matrix(1,0,0,1,444,115.5559054895275) translate(451.23021604938276 14.917037037037037)"/><path d="M1100 252.64a8 8 0 0 1 8-8h144a8 8 0 0 1 8 8v113.22c-26.72-20.24-43.36-20.24-53.44-20.24-16 0-37.28 20.24-53.28 20.24-9.92 0-26.72 0-53.28-20.24z" stroke="#000" stroke-opacity="0" stroke-width="2" fill="#4397ff"/><use xlink:href="#q" transform="matrix(1,0,0,1,1105,249.6440153301887) translate(21.225 37.4)"/><use xlink:href="#r" transform="matrix(1,0,0,1,1105,249.6440153301887) translate(60.225 37.4)"/><use xlink:href="#s" transform="matrix(1,0,0,1,1105,249.6440153301887) translate(29.574999999999996 59)"/><path d="M560 248a8 8 0 0 1 8-8h144a8 8 0 0 1 8 8v112c-26.72-20.04-43.36-20.04-53.44-20.04-16 0-37.28 20.04-53.28 20.04-9.92 0-26.72 0-53.28-20.04z" stroke="#000" stroke-opacity="0" stroke-width="2" fill="#4397ff"/><use xlink:href="#t" transform="matrix(1,0,0,1,565,245) translate(8.200000000000003 36.9)"/><use xlink:href="#u" transform="matrix(1,0,0,1,565,245) translate(69.15 36.9)"/><use xlink:href="#v" transform="matrix(1,0,0,1,565,245) translate(109.8 36.9)"/><use xlink:href="#w" transform="matrix(1,0,0,1,565,245) translate(32.025 58.5)"/><path d="M1348 500c17.67 0 32 17.9 32 40s-14.33 40-32 40h-96c-17.67 0-32-17.9-32-40s14.33-40 32-40z" stroke="#000" stroke-opacity="0" stroke-width="2" fill="#3fb8b9"/><use xlink:href="#x" transform="matrix(1,0,0,1,1225,505) translate(23.074999999999996 38.4625)"/><path d="M913.6 494.2a10.67 10.67 0 0 1 12.8 0l67.2 50.4a6 6 0 0 1 0 9.6l-67.2 50.4a10.67 10.67 0 0 1-12.8 0l-67.2-50.4a6 6 0 0 1 0-9.6z" stroke="#ff8080" stroke-width="4" fill="#fff"/><use xlink:href="#y" transform="matrix(1,0,0,1,844.9999999999999,494.3935909558444) translate(59.029999999999994 59.0875)"/><path d="M1180 356v54.8a12 12 0 0 1-12 12H932a12 12 0 0 0-12 12v38.87" stroke="#3a414a" fill="none"/><path d="M1180.5 356.03h-1v-.26l1-.5z" stroke="#3a414a" stroke-width=".05" fill="#3a414a"/><path d="M920 488.44l-4.64-14.27h9.28z" stroke="#3a414a" fill="#3a414a"/><path d="M920 364.48v96" stroke="#3a414a" fill="none"/><path d="M920.5 364.5h-1v-.26l1-.53z" stroke="#3a414a" stroke-width=".05" fill="#3a414a"/><path d="M920 475.26L915.36 461h9.28z" stroke="#3a414a" fill="#3a414a"/><path d="M640 350.26v57.65a12 12 0 0 0 12 12h256a12 12 0 0 1 12 12v41.77" stroke="#3a414a" fill="none"/><path d="M640.5 350.28h-1v-.26l1-.5z" stroke="#3a414a" stroke-width=".05" fill="#3a414a"/><path d="M920 488.44l-4.64-14.27h9.28z" stroke="#3a414a" fill="#3a414a"/><path d="M1097.98 549.9H998.5v-1H1098zm106.54 0h-83.6v-1h83.6z" stroke="#3a414a" stroke-width=".05" fill="#3a414a"/><path d="M998.52 549.9h-.56l.05-.5-.04-.5h.56z" fill="#3a414a"/><path d="M998.55 549.92h-.62l.05-.53-.05-.53h.62zm-.56-1l.03.47-.04.47h.5v-.95z" stroke="#3a414a" stroke-width=".05" fill="#3a414a"/><path d="M1219.3 549.4l-14.28 4.63v-9.27z" fill="#3a414a"/><path d="M1220.9 549.4l-16.38 5.32v-10.65zm-15.38 3.94l12.15-3.95-12.15-3.95z" stroke="#3a414a" stroke-width=".05" fill="#3a414a"/><use xlink:href="#z" transform="matrix(1,0,0,1,1097.9810893476397,538.5935909558444) translate(0.005000000000000782 14.4)"/><path d="M560 497.4a8 8 0 0 1 8-8h144a8 8 0 0 1 8 8v104a8 8 0 0 1-8 8H568a8 8 0 0 1-8-8z" stroke="#000" stroke-opacity="0" stroke-width="2" fill="#3fb8b9"/><use xlink:href="#A" transform="matrix(1,0,0,1,572,501.3935909558444) translate(37.5 50.4)"/><path d="M766.3 549.9h-29.96v-1h29.96zm75.2 0h-45.85v-1h45.84z" stroke="#3a414a" stroke-width=".05" fill="#3a414a"/><path d="M842 549.4l.04.5h-.56v-1h.56z" fill="#3a414a"/><path d="M842.02 549.4l.05.52h-.62v-1.05h.62zm-.52-.48v.95h.5l-.03-.48.04-.48z" stroke="#3a414a" stroke-width=".05" fill="#3a414a"/><path d="M735.84 554.03l-14.27-4.64 14.27-4.64z" fill="#3a414a"/><path d="M736.34 554.72l-16.4-5.33 16.4-5.33zm-13.15-5.33l12.14 3.94v-7.9z" stroke="#3a414a" stroke-width=".05" fill="#3a414a"/><use xlink:href="#B" transform="matrix(1,0,0,1,766.2963543317917,538.5935909558444) translate(0.005000000000000782 14.4)"/><path d="M390 865.64c0 9.2-31.34 16.64-70 16.64s-70-7.45-70-16.64V732.5c0-9.18 31.34-16.63 70-16.63s70 7.45 70 16.64z" stroke="#cc4e00" fill="#ff8839"/><path d="M390 732.5c0 9.2-31.34 16.65-70 16.65s-70-7.45-70-16.64" stroke="#cc4e00" fill="none"/><use xlink:href="#C" transform="matrix(1,0,0,1,255,754.151739511122) translate(27.074999999999996 64.775)"/><use xlink:href="#D" transform="matrix(1,0,0,1,255,754.151739511122) translate(60.025 64.775)"/><path d="M268.24 496.45A13.33 13.33 0 0 1 280 489.4h80a13.33 13.33 0 0 1 11.76 7.05l24.48 45.88a15 15 0 0 1 0 14.12l-24.48 45.88A13.33 13.33 0 0 1 360 609.4h-80a13.33 13.33 0 0 1-11.76-7.07l-24.48-45.88a15 15 0 0 1 0-14.12z" stroke="#3a414a" fill="#3fb8b9"/><use xlink:href="#E" transform="matrix(1,0,0,1,245,494.3935909558444) translate(27.57999999999999 38.4625)"/><use xlink:href="#F" transform="matrix(1,0,0,1,245,494.3935909558444) translate(84.48 38.4625)"/><use xlink:href="#G" transform="matrix(1,0,0,1,245,494.3935909558444) translate(32.105 60.0625)"/><use xlink:href="#H" transform="matrix(1,0,0,1,245,494.3935909558444) translate(40.60499999999999 81.66250000000001)"/><path d="M559.55 549.4H414.88" stroke="#3a414a" fill="none"/><path d="M560.05 549.9h-.5v-1h.5z" stroke="#3a414a" stroke-width=".05" fill="#3a414a"/><path d="M400.12 549.4l14.26-4.64v9.27z" stroke="#3a414a" fill="#3a414a"/><path d="M760 866.54c0 8.83-31.34 16-70 16s-70-7.17-70-16v-128c0-8.84 31.34-16 70-16s70 7.16 70 16z" stroke="#cc4e00" fill="#ff8839"/><path d="M760 738.54c0 8.83-31.34 16-70 16s-70-7.17-70-16" stroke="#cc4e00" fill="none"/><use xlink:href="#I" transform="matrix(1,0,0,1,625,759.5380306603772) translate(29.025 62.3375)"/><path d="M1140 866.54c0 8.83-31.34 16-70 16s-70-7.17-70-16v-128c0-8.84 31.34-16 70-16s70 7.16 70 16z" stroke="#cc4e00" fill="#ff8839"/><path d="M1140 738.54c0 8.83-31.34 16-70 16s-70-7.17-70-16" stroke="#cc4e00" fill="none"/><use xlink:href="#J" transform="matrix(1,0,0,1,1005,759.5380306603772) translate(18.074999999999996 62.3375)"/><path d="M1440 866.54c0 8.83-31.34 16-70 16s-70-7.17-70-16v-128c0-8.84 31.34-16 70-16s70 7.16 70 16z" stroke="#cc4e00" fill="#ff8839"/><path d="M1440 738.54c0 8.83-31.34 16-70 16s-70-7.17-70-16" stroke="#cc4e00" fill="none"/><use xlink:href="#K" transform="matrix(1,0,0,1,1305,759.5380306603772) translate(4.074999999999996 62.3375)"/><use xlink:href="#L" transform="matrix(1,0,0,1,1305,759.5380306603772) translate(81.025 62.3375)"/><path d="M320 610.36V699" stroke="#3a414a" fill="none"/><path d="M320.5 610.37h-1v-.5l1-.02z" stroke="#3a414a" stroke-width=".05" fill="#3a414a"/><path d="M320 713.75l-4.64-14.26h9.28z" stroke="#3a414a" fill="#3a414a"/><path d="M320 610.36v43.6a12 12 0 0 0 12 12h346a12 12 0 0 1 12 12v27.7" stroke="#3a414a" fill="none"/><path d="M320.5 610.37h-1v-.5l1-.02z" stroke="#3a414a" stroke-width=".05" fill="#3a414a"/><path d="M690 720.42l-4.64-14.27h9.28z" stroke="#3a414a" fill="#3a414a"/><path d="M1058.02 665.45l1.94.15 1.9.46 1.82.75 1.67 1.03 1.5 1.28 1.26 1.5 1.04 1.67.75 1.8.45 1.94.15 29.65h-1l-.15-29.52-.4-1.74-.7-1.67-.95-1.54-1.17-1.38-1.37-1.18-1.54-.94-1.67-.7-1.75-.4-1.82-.15-137.08-.03v-1zM320.5 653.93l.14 1.82.42 1.75.7 1.67.94 1.54 1.17 1.38 1.37 1.17 1.54.94 1.67.68 1.73.42 438.92.1v1l-439.04-.1-1.92-.46-1.82-.75-1.67-1.04-1.5-1.27-1.26-1.5-1.04-1.68-.75-1.8-.45-1.92-.15-1.93v-43.6h1z" stroke="#3a414a" stroke-width=".05" fill="#3a414a"/><path d="M320.5 610.37h-1v-.5l1-.02z" fill="#3a414a"/><path d="M320.52 610.4h-1.04v-.57h1.04zm-1-.52v.46h.96v-.46z" stroke="#3a414a" stroke-width=".05" fill="#3a414a"/><path d="M1070 720.42l-4.64-14.27h9.28z" fill="#3a414a"/><path d="M1070 722.04l-5.32-16.4h10.64zm-3.95-15.4l3.95 12.16 3.95-12.15zM1358.02 665.45l1.94.15 1.9.46 1.82.75 1.67 1.03 1.5 1.28 1.26 1.5 1.04 1.67.75 1.8.45 1.94.15 29.65h-1l-.15-29.52-.4-1.74-.7-1.67-.95-1.54-1.17-1.38-1.37-1.18-1.54-.94-1.67-.7-1.75-.4-1.82-.15-437.08-.07v-1zM320.5 653.93l.14 1.82.42 1.75.7 1.67.94 1.54 1.17 1.38 1.37 1.17 1.54.94 1.67.68 1.73.42 438.92.06v1l-439.04-.06-1.92-.46-1.82-.75-1.67-1.04-1.5-1.27-1.26-1.5-1.04-1.68-.75-1.8-.45-1.92-.15-1.93v-43.6h1z" stroke="#3a414a" stroke-width=".05" fill="#3a414a"/><path d="M320.5 610.37h-1v-.5l1-.02z" fill="#3a414a"/><path d="M320.52 610.4h-1.04v-.57h1.04zm-1-.52v.46h.96v-.46z" stroke="#3a414a" stroke-width=".05" fill="#3a414a"/><path d="M1370 720.42l-4.64-14.27h9.28z" fill="#3a414a"/><path d="M1370 722.04l-5.32-16.4h10.64zm-3.95-15.4l3.95 12.16 3.95-12.15z" stroke="#3a414a" stroke-width=".05" fill="#3a414a"/><use xlink:href="#M" transform="matrix(1,0,0,1,769.1,655.146544174721) translate(0.0049999999999954525 14.4)"/><use xlink:href="#N" transform="matrix(1,0,0,1,769.1,655.146544174721) translate(23.955 14.4)"/><use xlink:href="#O" transform="matrix(1,0,0,1,769.1,655.146544174721) translate(99.905 14.4)"/><path d="M404.44 976.78a4.28 4.28 0 0 1 3.56-6.66h144a4.28 4.28 0 0 1 3.56 6.66l-71.12 106.7a5.33 5.33 0 0 1-8.88 0z" stroke="#3a414a" fill="#eb6b6b"/><use xlink:href="#P" transform="matrix(1,0,0,1,404.9999999999999,975.1241155660377) translate(56.496049382716045 57.42777777777778)"/><path d="M468.02 925.73l1.94.15 1.9.46 1.82.75 1.67 1 1.5 1.3 1.26 1.48 1.04 1.67.75 1.8.45 1.94.15 17h-1l-.15-16.9-.4-1.73-.7-1.66-.95-1.53-1.17-1.37-1.37-1.18-1.54-.94-1.67-.7-1.75-.4-1.82-.15-61.7-.07v-1zM320.5 914.2l.14 1.83.42 1.75.7 1.67.94 1.54 1.17 1.36 1.37 1.17 1.54.94 1.67.7 1.73.4 38.15.05v1l-38.27-.04-1.92-.46-1.82-.75-1.67-1.03-1.5-1.27-1.26-1.5-1.04-1.67-.75-1.8-.45-1.92-.15-1.93v-30.97h1z" stroke="#3a414a" stroke-width=".05" fill="#3a414a"/><path d="M320 882.78l.5-.02v.53h-1v-.54z" fill="#3a414a"/><path d="M320 882.75h.52v.57h-1.04v-.58zm-.48.52h.96v-.48h-.96z" stroke="#3a414a" stroke-width=".05" fill="#3a414a"/><path d="M480 968.06l-4.64-14.27h9.28z" fill="#3a414a"/><path d="M480 969.67l-5.32-16.38h10.64zm-3.95-15.38l3.95 12.14 3.95-12.15z" stroke="#3a414a" stroke-width=".05" fill="#3a414a"/><use xlink:href="#Q" transform="matrix(1,0,0,1,368.33059711015716,915.4265776597753) translate(0.004999999999999005 14.4)"/><path d="M566.02 926.8l-74 .06-1.82.14-1.75.42-1.67.7-1.54.93-1.37 1.18-1.17 1.37-.95 1.54-.7 1.66-.4 1.74-.15 16.75h-1l.15-16.88.46-1.93.76-1.82 1.03-1.67 1.26-1.48 1.5-1.28 1.66-1.02 1.82-.75 1.9-.46 1.94-.14 74.04-.06zm124.48-12.42l-.15 1.93-.46 1.92-.76 1.8-1.03 1.68-1.26 1.5-1.5 1.27-1.66 1.02-1.82.75-1.92.46-75.97.07v-1l75.85-.06 1.73-.4 1.67-.7 1.54-.94 1.37-1.17 1.17-1.4.95-1.52.7-1.67.4-1.75.15-1.8v-30.8h1z" stroke="#3a414a" stroke-width=".05" fill="#3a414a"/><path d="M690 883.04l.5-.02v.53h-1v-.53z" fill="#3a414a"/><path d="M690 883h.52v.58h-1.04V883zm-.48.53h.96v-.48h-.96z" stroke="#3a414a" stroke-width=".05" fill="#3a414a"/><path d="M480 968.06l-4.64-14.27h9.28z" fill="#3a414a"/><path d="M480 969.67l-5.32-16.38h10.64zm-3.95-15.38l3.95 12.14 3.95-12.15z" stroke="#3a414a" stroke-width=".05" fill="#3a414a"/><use xlink:href="#Q" transform="matrix(1,0,0,1,566.025,915.5559430835505) translate(0.004999999999999005 14.4)"/><path d="M784.44 973.76a4.28 4.28 0 0 1 3.56-6.66h144a4.28 4.28 0 0 1 3.56 6.66l-71.12 106.7a5.33 5.33 0 0 1-8.88 0z" stroke="#3a414a" fill="#eb6b6b"/><use xlink:href="#P" transform="matrix(1,0,0,1,785,972.1019444779342) translate(56.496049382716045 57.42777777777778)"/><path d="M848.02 924.34l1.94.16 1.9.46 1.82.75 1.67 1.03 1.5 1.27 1.26 1.5 1.04 1.67.75 1.8.45 1.94.15 15.36h-1l-.15-15.23-.4-1.74-.7-1.68-.95-1.53-1.17-1.4-1.37-1.16-1.54-.94-1.67-.7-1.75-.4-1.82-.16-32.53-.03v-1zm-157.52-11.5l.14 1.8.42 1.76.7 1.67.94 1.53 1.17 1.38 1.37 1.17 1.54.94 1.67.68 1.73.42 34.37.03v1l-34.5-.03-1.9-.47-1.83-.75-1.67-1.02-1.5-1.28-1.26-1.5-1.04-1.66-.75-1.8-.45-1.92-.15-1.94v-29.32h1z" stroke="#3a414a" stroke-width=".05" fill="#3a414a"/><path d="M690 883.04l.5-.02v.53h-1v-.53z" fill="#3a414a"/><path d="M690 883h.52v.58h-1.04V883zm-.48.53h.96v-.48h-.96z" stroke="#3a414a" stroke-width=".05" fill="#3a414a"/><path d="M860 965.03l-4.64-14.26h9.28z" fill="#3a414a"/><path d="M860 966.65l-5.32-16.38h10.64zm-3.95-15.38l3.95 12.15 3.95-12.15z" stroke="#3a414a" stroke-width=".05" fill="#3a414a"/><use xlink:href="#R" transform="matrix(1,0,0,1,734.55,914.0448575394987) translate(0.005000000000002558 14.4)"/><path d="M898.7 925.32l-26.68.02-1.82.15-1.75.4-1.67.7-1.54.94-1.37 1.17-1.17 1.4-.95 1.52-.7 1.67-.4 1.73-.15 15.24h-1l.15-15.36.46-1.92.76-1.8 1.03-1.68 1.26-1.5 1.5-1.27 1.66-1.02 1.82-.74 1.9-.46 1.94-.16 26.7-.02zm171.8-12.46l-.15 1.94-.46 1.9-.76 1.82-1.03 1.67-1.26 1.48-1.5 1.28-1.66 1.02-1.82.75-1.92.47-80.35.06v-1l80.22-.06 1.73-.42 1.67-.7 1.54-.93 1.37-1.17 1.17-1.38.95-1.53.7-1.67.4-1.76.15-1.8v-29.3h1z" stroke="#3a414a" stroke-width=".05" fill="#3a414a"/><path d="M1070 883.04l.5-.02v.53h-1v-.53z" fill="#3a414a"/><path d="M1070 883h.53v.58h-1.06V883zm-.47.53h.94v-.48h-.94z" stroke="#3a414a" stroke-width=".05" fill="#3a414a"/><path d="M860 965.03l-4.64-14.26h9.28z" fill="#3a414a"/><path d="M860 966.65l-5.32-16.38h10.64zm-3.95-15.38l3.95 12.15 3.95-12.15z" stroke="#3a414a" stroke-width=".05" fill="#3a414a"/><use xlink:href="#R" transform="matrix(1,0,0,1,898.690875608841,914.0448575394987) translate(0.005000000000002558 14.4)"/><path d="M1142.7 978.56a4.28 4.28 0 0 1 3.55-6.66h144a4.28 4.28 0 0 1 3.56 6.66l-71.1 106.68a5.33 5.33 0 0 1-8.9 0z" stroke="#3a414a" fill="#eb6b6b"/><use xlink:href="#P" transform="matrix(1,0,0,1,1143.2483141558632,976.9000727995622) translate(56.496049382716045 57.42777777777778)"/><path d="M1206.27 926.74l1.93.16 1.9.45 1.82.75 1.68 1.03 1.5 1.27 1.26 1.5 1.03 1.67.74 1.8.46 1.94.15 17.76h-1l-.15-17.63-.42-1.74-.7-1.68-.93-1.53-1.17-1.4-1.37-1.16-1.53-.94-1.67-.7-1.75-.4-1.82-.16-21.66-.02v-1zm-135.77-11.52l.14 1.82.42 1.76.7 1.66.94 1.54 1.17 1.37 1.37 1.18 1.54.94 1.67.68 1.73.42 23.5.02v1l-23.62-.02-1.92-.47-1.82-.75-1.67-1.02-1.5-1.28-1.26-1.5-1.04-1.66-.75-1.8-.45-1.92-.15-1.94v-31.72h1z" stroke="#3a414a" stroke-width=".05" fill="#3a414a"/><path d="M1070 883.04l.5-.02v.53h-1v-.53z" fill="#3a414a"/><path d="M1070 883h.53v.58h-1.06V883zm-.47.53h.94v-.48h-.94z" stroke="#3a414a" stroke-width=".05" fill="#3a414a"/><path d="M1218.25 969.83l-4.64-14.26h9.28z" fill="#3a414a"/><path d="M1218.25 971.45l-5.33-16.38h10.65zm-3.95-15.38l3.95 12.14 3.95-12.13z" stroke="#3a414a" stroke-width=".05" fill="#3a414a"/><use xlink:href="#R" transform="matrix(1,0,0,1,1103.6741570779316,916.4439217003127) translate(0.005000000000002558 14.4)"/><path d="M1253.67 927.72l-23.4.02-1.82.15-1.75.4-1.67.7-1.54.94-1.38 1.17-1.17 1.4-.95 1.52-.7 1.67-.4 1.73-.15 17.64h-1l.15-17.76.46-1.92.75-1.8 1.03-1.68 1.28-1.5 1.5-1.27 1.67-1.03 1.82-.75 1.9-.45 1.93-.16 23.44-.02zm116.83-12.46l-.15 1.94-.46 1.9-.76 1.82-1.03 1.67-1.26 1.48-1.5 1.28-1.66 1.02-1.82.75-1.92.47-25.37.03v-1l25.25-.03 1.73-.42 1.67-.7 1.54-.93 1.37-1.18 1.17-1.37.95-1.54.7-1.66.4-1.76.15-1.82v-31.68h1z" stroke="#3a414a" stroke-width=".05" fill="#3a414a"/><path d="M1370 883.04l.5-.02v.53h-1v-.53z" fill="#3a414a"/><path d="M1370 883h.53v.58h-1.06V883zm-.47.53h.94v-.48h-.94z" stroke="#3a414a" stroke-width=".05" fill="#3a414a"/><path d="M1218.25 969.83l-4.64-14.26h9.28z" fill="#3a414a"/><path d="M1218.25 971.45l-5.33-16.38h10.65zm-3.95-15.38l3.95 12.14 3.95-12.13z" stroke="#3a414a" stroke-width=".05" fill="#3a414a"/><g><use xlink:href="#R" transform="matrix(1,0,0,1,1253.6741570779316,916.4439217003127) translate(0.005000000000002558 14.4)"/></g><path d="M1440 975.1a8 8 0 0 1 8-8h144a8 8 0 0 1 8 8v104a8 8 0 0 1-8 8h-144a8 8 0 0 1-8-8z" stroke="#3a414a" fill="#ff8080"/><path d="M1456 967.1v120m128-120v120" stroke="#3a414a" fill="none"/><g><use xlink:href="#S" transform="matrix(1,0,0,1,1465,972.1019444779341) translate(5.774999999999999 37)"/><use xlink:href="#T" transform="matrix(1,0,0,1,1465,972.1019444779341) translate(83.275 37)"/><use xlink:href="#U" transform="matrix(1,0,0,1,1465,972.1019444779341) translate(11.074999999999996 58.6)"/><use xlink:href="#V" transform="matrix(1,0,0,1,1465,972.1019444779341) translate(82.975 58.6)"/><use xlink:href="#W" transform="matrix(1,0,0,1,1465,972.1019444779341) translate(11.549999999999997 80.20000000000002)"/></g><path d="M480 1086.85v28.7a12 12 0 0 0 12 12h1016a12 12 0 0 0 12-12v-11.6" stroke="#3a414a" fill="none"/><path d="M480 1086.35l.5-.05v.56h-1v-.56z" stroke="#3a414a" stroke-width=".05" fill="#3a414a"/><path d="M1520 1089.17l4.64 14.27h-9.28z" stroke="#3a414a" fill="#3a414a"/><path d="M860 1083.82v31.73a12 12 0 0 0 12 12h636a12 12 0 0 0 12-12v-11.6" stroke="#3a414a" fill="none"/><path d="M860 1083.32l.5-.05v.57h-1v-.57z" stroke="#3a414a" stroke-width=".05" fill="#3a414a"/><path d="M1520 1089.17l4.64 14.27h-9.28z" stroke="#3a414a" fill="#3a414a"/><path d="M1218.25 1088.62v27.5a12 12 0 0 0 12 12H1508a12 12 0 0 0 12-12v-12.18" stroke="#3a414a" fill="none"/><path d="M1218.25 1088.12l.5-.05v.56h-1v-.56z" stroke="#3a414a" stroke-width=".05" fill="#3a414a"/><path d="M1520 1089.17l4.64 14.27h-9.28z" stroke="#3a414a" fill="#3a414a"/><path d="M1180 356v59.76a12 12 0 0 0 12 12h96a12 12 0 0 1 12 12v43.86" stroke="#3a414a" fill="none"/><path d="M1180.5 356.03h-1v-.26l1-.5z" stroke="#3a414a" stroke-width=".05" fill="#3a414a"/><path d="M1300 498.38l-4.64-14.26h9.28z" stroke="#3a414a" fill="#3a414a"/><defs><path fill="#fff" d="M24 0v-248h195v40H76v63h132v40H76v65h150V0H24" id="X"/><path fill="#fff" d="M144 0l-44-69L55 0H2l70-98-66-92h53l41 62 40-62h54l-67 91 71 99h-54" id="Y"/><path fill="#fff" d="M115-3C79 11 28 4 28-45v-112H4v-33h27l15-45h31v45h36v33H77v99c-1 23 16 31 38 25v30" id="Z"/><path fill="#fff" d="M135-150c-39-12-60 13-60 57V0H25l-1-190h47c2 13-1 29 3 40 6-28 27-53 61-41v41" id="aa"/><path fill="#fff" d="M133-34C117-15 103 5 69 4 32 3 11-16 11-54c-1-60 55-63 116-61 1-26-3-47-28-47-18 1-26 9-28 27l-52-2c7-38 36-58 82-57s74 22 75 68l1 82c-1 14 12 18 25 15v27c-30 8-71 5-69-32zm-48 3c29 0 43-24 42-57-32 0-66-3-65 30 0 17 8 27 23 27" id="ab"/><path fill="#fff" d="M190-63c-7 42-38 67-86 67-59 0-84-38-90-98-12-110 154-137 174-36l-49 2c-2-19-15-32-35-32-30 0-35 28-38 64-6 74 65 87 74 30" id="ac"/><g id="a"><use transform="matrix(0.06436759972834913,0,0,0.06436759972834913,0,0)" xlink:href="#X"/><use transform="matrix(0.06436759972834913,0,0,0.06436759972834913,15.44822393480379,0)" xlink:href="#Y"/><use transform="matrix(0.06436759972834913,0,0,0.06436759972834913,28.321743880473615,0)" xlink:href="#Z"/><use transform="matrix(0.06436759972834913,0,0,0.06436759972834913,35.98148824814716,0)" xlink:href="#aa"/><use transform="matrix(0.06436759972834913,0,0,0.06436759972834913,44.992952210116044,0)" xlink:href="#ab"/><use transform="matrix(0.06436759972834913,0,0,0.06436759972834913,57.866472155785864,0)" xlink:href="#ac"/><use transform="matrix(0.06436759972834913,0,0,0.06436759972834913,70.73999210145568,0)" xlink:href="#Z"/></g><path fill="#fff" d="M136-208V0H84v-208H4v-40h212v40h-80" id="ad"/><path fill="#fff" d="M135-194c87-1 58 113 63 194h-50c-7-57 23-157-34-157-59 0-34 97-39 157H25l-1-190h47c2 12-1 28 3 38 12-26 28-41 61-42" id="ae"/><path fill="#fff" d="M137-138c1-29-70-34-71-4 15 46 118 7 119 86 1 83-164 76-172 9l43-7c4 19 20 25 44 25 33 8 57-30 24-41C81-84 22-81 20-136c-2-80 154-74 161-7" id="af"/><path fill="#fff" d="M121-226c-27-7-43 5-38 36h38v33H83V0H34v-157H6v-33h28c-9-59 32-81 87-68v32" id="ag"/><path fill="#fff" d="M110-194c64 0 96 36 96 99 0 64-35 99-97 99-61 0-95-36-95-99 0-62 34-99 96-99zm-1 164c35 0 45-28 45-65 0-40-10-65-43-65-34 0-45 26-45 65 0 36 10 65 43 65" id="ah"/><path fill="#fff" d="M220-157c-53 9-28 100-34 157h-49v-107c1-27-5-49-29-50C55-147 81-57 75 0H25l-1-190h47c2 12-1 28 3 38 10-53 101-56 108 0 13-22 24-43 59-42 82 1 51 116 57 194h-49v-107c-1-25-5-48-29-50" id="ai"/><g id="b"><use transform="matrix(0.06436759972834913,0,0,0.06436759972834913,0,0)" xlink:href="#ad"/><use transform="matrix(0.06436759972834913,0,0,0.06436759972834913,12.809152345941477,0)" xlink:href="#aa"/><use transform="matrix(0.06436759972834913,0,0,0.06436759972834913,21.820616307910356,0)" xlink:href="#ab"/><use transform="matrix(0.06436759972834913,0,0,0.06436759972834913,34.69413625358018,0)" xlink:href="#ae"/><use transform="matrix(0.06436759972834913,0,0,0.06436759972834913,48.79064059408864,0)" xlink:href="#af"/><use transform="matrix(0.06436759972834913,0,0,0.06436759972834913,61.66416053975847,0)" xlink:href="#ag"/><use transform="matrix(0.06436759972834913,0,0,0.06436759972834913,69.32390490743202,0)" xlink:href="#ah"/><use transform="matrix(0.06436759972834913,0,0,0.06436759972834913,83.42040924794048,0)" xlink:href="#aa"/><use transform="matrix(0.06436759972834913,0,0,0.06436759972834913,92.43187320990936,0)" xlink:href="#ai"/></g><path fill="#fff" d="M24 0v-248h52v208h133V0H24" id="aj"/><path fill="#fff" d="M88-194c31-1 46 15 58 34l-1-101h50l1 261h-48c-2-10 0-23-3-31C134-8 116 4 84 4 32 4 16-41 15-95c0-56 19-97 73-99zm17 164c33 0 40-30 41-66 1-37-9-64-41-64s-38 30-39 65c0 43 13 65 39 65" id="ak"/><g id="c"><use transform="matrix(0.06436759972834913,0,0,0.06436759972834913,0,0)" xlink:href="#aj"/><use transform="matrix(0.06436759972834913,0,0,0.06436759972834913,14.09650434050846,0)" xlink:href="#ah"/><use transform="matrix(0.06436759972834913,0,0,0.06436759972834913,28.19300868101692,0)" xlink:href="#ab"/><use transform="matrix(0.06436759972834913,0,0,0.06436759972834913,41.06652862668675,0)" xlink:href="#ak"/></g><path fill="#fff" d="M176-78C186 10 51 31 16-35c-5-9-9-19-11-32l52-8c4 21 12 37 35 38 23 0 32-16 32-40v-130H75v-41h101v170" id="al"/><path fill="#fff" d="M25-224v-37h50v37H25zM25 0v-190h50V0H25" id="am"/><g id="d"><use transform="matrix(0.06436759972834913,0,0,0.06436759972834913,0,0)" xlink:href="#al"/><use transform="matrix(0.06436759972834913,0,0,0.06436759972834913,12.873519945669825,0)" xlink:href="#ah"/><use transform="matrix(0.06436759972834913,0,0,0.06436759972834913,26.970024286178287,0)" xlink:href="#am"/><use transform="matrix(0.06436759972834913,0,0,0.06436759972834913,33.4067842590132,0)" xlink:href="#ae"/><use transform="matrix(0.06436759972834913,0,0,0.06436759972834913,47.50328859952166,0)" xlink:href="#af"/></g><path fill="#fff" d="M63-220v92h138v28H63V0H30v-248h175v28H63" id="an"/><path fill="#fff" d="M160-131c35 5 61 23 61 61C221 17 115-2 30 0v-248c76 3 177-17 177 60 0 33-19 50-47 57zm-97-11c50-1 110 9 110-42 0-47-63-36-110-37v79zm0 115c55-2 124 14 124-45 0-56-70-42-124-44v89" id="ao"/><path fill="#fff" d="M33 0v-248h34V0H33" id="ap"/><g id="e"><use transform="matrix(0.057215644202977006,0,0,0.057215644202977006,0,0)" xlink:href="#an"/><use transform="matrix(0.057215644202977006,0,0,0.057215644202977006,12.530226080451964,0)" xlink:href="#ao"/><use transform="matrix(0.057215644202977006,0,0,0.057215644202977006,26.261980689166446,0)" xlink:href="#ap"/></g><path fill="#fff" d="M141-36C126-15 110 5 73 4 37 3 15-17 15-53c-1-64 63-63 125-63 3-35-9-54-41-54-24 1-41 7-42 31l-33-3c5-37 33-52 76-52 45 0 72 20 72 64v82c-1 20 7 32 28 27v20c-31 9-61-2-59-35zM48-53c0 20 12 33 32 33 41-3 63-29 60-74-43 2-92-5-92 41" id="aq"/><path fill="#fff" d="M96-169c-40 0-48 33-48 73s9 75 48 75c24 0 41-14 43-38l32 2c-6 37-31 61-74 61-59 0-76-41-82-99-10-93 101-131 147-64 4 7 5 14 7 22l-32 3c-4-21-16-35-41-35" id="ar"/><path fill="#fff" d="M143 0L79-87 56-68V0H24v-261h32v163l83-92h37l-77 82L181 0h-38" id="as"/><path fill="#fff" d="M177-190C167-65 218 103 67 71c-23-6-38-20-44-43l32-5c15 47 100 32 89-28v-30C133-14 115 1 83 1 29 1 15-40 15-95c0-56 16-97 71-98 29-1 48 16 59 35 1-10 0-23 2-32h30zM94-22c36 0 50-32 50-73 0-42-14-75-50-75-39 0-46 34-46 75s6 73 46 73" id="at"/><path fill="#fff" d="M114-163C36-179 61-72 57 0H25l-1-190h30c1 12-1 29 2 39 6-27 23-49 58-41v29" id="au"/><path fill="#fff" d="M100-194c62-1 85 37 85 99 1 63-27 99-86 99S16-35 15-95c0-66 28-99 85-99zM99-20c44 1 53-31 53-75 0-43-8-75-51-75s-53 32-53 75 10 74 51 75" id="av"/><path fill="#fff" d="M84 4C-5 8 30-112 23-190h32v120c0 31 7 50 39 49 72-2 45-101 50-169h31l1 190h-30c-1-10 1-25-2-33-11 22-28 36-60 37" id="aw"/><path fill="#fff" d="M117-194c89-4 53 116 60 194h-32v-121c0-31-8-49-39-48C34-167 62-67 57 0H25l-1-190h30c1 10-1 24 2 32 11-22 29-35 61-36" id="ax"/><path fill="#fff" d="M85-194c31 0 48 13 60 33l-1-100h32l1 261h-30c-2-10 0-23-3-31C134-8 116 4 85 4 32 4 16-35 15-94c0-66 23-100 70-100zm9 24c-40 0-46 34-46 75 0 40 6 74 45 74 42 0 51-32 51-76 0-42-9-74-50-73" id="ay"/><g id="f"><use transform="matrix(0.057215644202977006,0,0,0.057215644202977006,0,0)" xlink:href="#ao"/><use transform="matrix(0.057215644202977006,0,0,0.057215644202977006,13.731754608714482,0)" xlink:href="#aq"/><use transform="matrix(0.057215644202977006,0,0,0.057215644202977006,25.17488344930988,0)" xlink:href="#ar"/><use transform="matrix(0.057215644202977006,0,0,0.057215644202977006,35.47369940584574,0)" xlink:href="#as"/><use transform="matrix(0.057215644202977006,0,0,0.057215644202977006,45.772515362381604,0)" xlink:href="#at"/><use transform="matrix(0.057215644202977006,0,0,0.057215644202977006,57.215644202977,0)" xlink:href="#au"/><use transform="matrix(0.057215644202977006,0,0,0.057215644202977006,64.02430586313126,0)" xlink:href="#av"/><use transform="matrix(0.057215644202977006,0,0,0.057215644202977006,75.46743470372667,0)" xlink:href="#aw"/><use transform="matrix(0.057215644202977006,0,0,0.057215644202977006,86.91056354432207,0)" xlink:href="#ax"/><use transform="matrix(0.057215644202977006,0,0,0.057215644202977006,98.35369238491748,0)" xlink:href="#ay"/></g><path fill="#fff" d="M212-179c-10-28-35-45-73-45-59 0-87 40-87 99 0 60 29 101 89 101 43 0 62-24 78-52l27 14C228-24 195 4 139 4 59 4 22-46 18-125c-6-104 99-153 187-111 19 9 31 26 39 46" id="az"/><path fill="#fff" d="M106-169C34-169 62-67 57 0H25v-261h32l-1 103c12-21 28-36 61-36 89 0 53 116 60 194h-32v-121c2-32-8-49-39-48" id="aA"/><path fill="#fff" d="M100-194c63 0 86 42 84 106H49c0 40 14 67 53 68 26 1 43-12 49-29l28 8c-11 28-37 45-77 45C44 4 14-33 15-96c1-61 26-98 85-98zm52 81c6-60-76-77-97-28-3 7-6 17-6 28h103" id="aB"/><g id="g"><use transform="matrix(0.057215644202977006,0,0,0.057215644202977006,0,0)" xlink:href="#az"/><use transform="matrix(0.057215644202977006,0,0,0.057215644202977006,14.818851848571045,0)" xlink:href="#aA"/><use transform="matrix(0.057215644202977006,0,0,0.057215644202977006,26.261980689166446,0)" xlink:href="#aB"/><use transform="matrix(0.057215644202977006,0,0,0.057215644202977006,37.70510952976185,0)" xlink:href="#ar"/><use transform="matrix(0.057215644202977006,0,0,0.057215644202977006,48.00392548629771,0)" xlink:href="#as"/></g><path fill="#fff" d="M30-248c118-7 216 8 213 122C240-48 200 0 122 0H30v-248zM63-27c89 8 146-16 146-99s-60-101-146-95v194" id="aC"/><g id="h"><use transform="matrix(0.057215644202977006,0,0,0.057215644202977006,0,0)" xlink:href="#aC"/><use transform="matrix(0.057215644202977006,0,0,0.057215644202977006,14.818851848571045,0)" xlink:href="#ao"/></g><path fill="#a9afb8" d="M67-125c0 54 23 88 75 88 28 0 53-7 68-21v-34h-60v-39h108v91C232-14 192 4 140 4 58 4 20-42 15-125 8-236 126-280 215-234c19 10 29 26 37 47l-47 15c-11-23-29-39-63-39-53 1-75 33-75 86" id="aD"/><path fill="#a9afb8" d="M85 4C-2 5 27-109 22-190h50c7 57-23 150 33 157 60-5 35-97 40-157h50l1 190h-47c-2-12 1-28-3-38-12 25-28 42-61 42" id="aE"/><path fill="#a9afb8" d="M135-194c87-1 58 113 63 194h-50c-7-57 23-157-34-157-59 0-34 97-39 157H25l-1-190h47c2 12-1 28 3 38 12-26 28-41 61-42" id="aF"/><g id="i"><use transform="matrix(0.0728395061728395,0,0,0.0728395061728395,0,0)" xlink:href="#aD"/><use transform="matrix(0.0728395061728395,0,0,0.0728395061728395,20.39506172839506,0)" xlink:href="#aE"/><use transform="matrix(0.0728395061728395,0,0,0.0728395061728395,36.34691358024691,0)" xlink:href="#aF"/></g><path fill="#a9afb8" d="M147 0H94L2-248h55l64 206c17-72 42-137 63-206h54" id="aG"/><path fill="#a9afb8" d="M25-224v-37h50v37H25zM25 0v-190h50V0H25" id="aH"/><path fill="#a9afb8" d="M110-194c64 0 96 36 96 99 0 64-35 99-97 99-61 0-95-36-95-99 0-62 34-99 96-99zm-1 164c35 0 45-28 45-65 0-40-10-65-43-65-34 0-45 26-45 65 0 36 10 65 43 65" id="aI"/><path fill="#a9afb8" d="M25 0v-261h50V0H25" id="aJ"/><path fill="#a9afb8" d="M185-48c-13 30-37 53-82 52C43 2 14-33 14-96s30-98 90-98c62 0 83 45 84 108H66c0 31 8 55 39 56 18 0 30-7 34-22zm-45-69c5-46-57-63-70-21-2 6-4 13-4 21h74" id="aK"/><path fill="#a9afb8" d="M190-63c-7 42-38 67-86 67-59 0-84-38-90-98-12-110 154-137 174-36l-49 2c-2-19-15-32-35-32-30 0-35 28-38 64-6 74 65 87 74 30" id="aL"/><g id="j"><use transform="matrix(0.0728395061728395,0,0,0.0728395061728395,0,0)" xlink:href="#aG"/><use transform="matrix(0.0728395061728395,0,0,0.0728395061728395,16.971604938271604,0)" xlink:href="#aH"/><use transform="matrix(0.0728395061728395,0,0,0.0728395061728395,24.25555555555555,0)" xlink:href="#aI"/><use transform="matrix(0.0728395061728395,0,0,0.0728395061728395,40.2074074074074,0)" xlink:href="#aJ"/><use transform="matrix(0.0728395061728395,0,0,0.0728395061728395,47.49135802469135,0)" xlink:href="#aK"/><use transform="matrix(0.0728395061728395,0,0,0.0728395061728395,62.05925925925925,0)" xlink:href="#aF"/><use transform="matrix(0.0728395061728395,0,0,0.0728395061728395,78.0111111111111,0)" xlink:href="#aL"/><use transform="matrix(0.0728395061728395,0,0,0.0728395061728395,92.579012345679,0)" xlink:href="#aK"/></g><path fill="#a9afb8" d="M24 0v-248h195v40H76v63h132v40H76v65h150V0H24" id="aM"/><path fill="#a9afb8" d="M136-208V0H84v-208H4v-40h212v40h-80" id="aN"/><path fill="#a9afb8" d="M24 0v-248h52v208h133V0H24" id="aO"/><g id="k"><use transform="matrix(0.0728395061728395,0,0,0.0728395061728395,0,0)" xlink:href="#aM"/><use transform="matrix(0.0728395061728395,0,0,0.0728395061728395,17.48148148148148,0)" xlink:href="#aN"/><use transform="matrix(0.0728395061728395,0,0,0.0728395061728395,33.43333333333333,0)" xlink:href="#aO"/></g><path fill="#a9afb8" d="M32 76v-337h29V76H32" id="aP"/><use transform="matrix(0.04248971193415638,0,0,0.04248971193415638,0,0)" xlink:href="#aP" id="m"/><path fill="#a9afb8" d="M153-248C145-148 188 4 80 4 36 3 13-21 6-62l32-5c4 25 16 42 43 43 27 0 39-20 39-49v-147H72v-28h81" id="aQ"/><path fill="#a9afb8" d="M84 4C-5 8 30-112 23-190h32v120c0 31 7 50 39 49 72-2 45-101 50-169h31l1 190h-30c-1-10 1-25-2-33-11 22-28 36-60 37" id="aR"/><path fill="#a9afb8" d="M117-194c89-4 53 116 60 194h-32v-121c0-31-8-49-39-48C34-167 62-67 57 0H25l-1-190h30c1 10-1 24 2 32 11-22 29-35 61-36" id="aS"/><path fill="#a9afb8" d="M100-194c63 0 86 42 84 106H49c0 40 14 67 53 68 26 1 43-12 49-29l28 8c-11 28-37 45-77 45C44 4 14-33 15-96c1-61 26-98 85-98zm52 81c6-60-76-77-97-28-3 7-6 17-6 28h103" id="aT"/><g id="n"><use transform="matrix(0.04248971193415638,0,0,0.04248971193415638,0,0)" xlink:href="#aQ"/><use transform="matrix(0.04248971193415638,0,0,0.04248971193415638,7.648148148148148,0)" xlink:href="#aR"/><use transform="matrix(0.04248971193415638,0,0,0.04248971193415638,16.14609053497942,0)" xlink:href="#aS"/><use transform="matrix(0.04248971193415638,0,0,0.04248971193415638,24.644032921810698,0)" xlink:href="#aT"/></g><path fill="#a9afb8" d="M27 0v-27h64v-190l-56 39v-29l58-41h29v221h61V0H27" id="aU"/><path fill="#a9afb8" d="M101-251c68 0 85 55 85 127S166 4 100 4C33 4 14-52 14-124c0-73 17-127 87-127zm-1 229c47 0 54-49 54-102s-4-102-53-102c-51 0-55 48-55 102 0 53 5 102 54 102" id="aV"/><path fill="#a9afb8" d="M68-38c1 34 0 65-14 84H32c9-13 17-26 17-46H33v-38h35" id="aW"/><g id="o"><use transform="matrix(0.04248971193415638,0,0,0.04248971193415638,0,0)" xlink:href="#aU"/><use transform="matrix(0.04248971193415638,0,0,0.04248971193415638,8.497942386831275,0)" xlink:href="#aV"/><use transform="matrix(0.04248971193415638,0,0,0.04248971193415638,16.99588477366255,0)" xlink:href="#aW"/></g><path fill="#a9afb8" d="M101-251c82-7 93 87 43 132L82-64C71-53 59-42 53-27h129V0H18c2-99 128-94 128-182 0-28-16-43-45-43s-46 15-49 41l-32-3c6-41 34-60 81-64" id="aX"/><g id="p"><use transform="matrix(0.04248971193415638,0,0,0.04248971193415638,0,0)" xlink:href="#aX"/><use transform="matrix(0.04248971193415638,0,0,0.04248971193415638,8.497942386831275,0)" xlink:href="#aV"/><use transform="matrix(0.04248971193415638,0,0,0.04248971193415638,16.99588477366255,0)" xlink:href="#aX"/><use transform="matrix(0.04248971193415638,0,0,0.04248971193415638,25.493827160493822,0)" xlink:href="#aX"/></g><path fill="#fff" d="M143 4C61 4 22-44 18-125c-5-107 100-154 193-111 17 8 29 25 37 43l-32 9c-13-25-37-40-76-40-61 0-88 39-88 99 0 61 29 100 91 101 35 0 62-11 79-27v-45h-74v-28h105v86C228-13 192 4 143 4" id="aY"/><g id="q"><use transform="matrix(0.05,0,0,0.05,0,0)" xlink:href="#aY"/><use transform="matrix(0.05,0,0,0.05,14,0)" xlink:href="#aw"/><use transform="matrix(0.05,0,0,0.05,24,0)" xlink:href="#ax"/></g><path fill="#fff" d="M137 0h-34L2-248h35l83 218 83-218h36" id="aZ"/><path fill="#fff" d="M24-231v-30h32v30H24zM24 0v-190h32V0H24" id="ba"/><path fill="#fff" d="M24 0v-261h32V0H24" id="bb"/><g id="r"><use transform="matrix(0.05,0,0,0.05,0,0)" xlink:href="#aZ"/><use transform="matrix(0.05,0,0,0.05,11.65,0)" xlink:href="#ba"/><use transform="matrix(0.05,0,0,0.05,15.600000000000001,0)" xlink:href="#av"/><use transform="matrix(0.05,0,0,0.05,25.6,0)" xlink:href="#bb"/><use transform="matrix(0.05,0,0,0.05,29.55,0)" xlink:href="#aB"/><use transform="matrix(0.05,0,0,0.05,39.55,0)" xlink:href="#ax"/><use transform="matrix(0.05,0,0,0.05,49.55,0)" xlink:href="#ar"/><use transform="matrix(0.05,0,0,0.05,58.54999999999999,0)" xlink:href="#aB"/></g><path fill="#fff" d="M205 0l-28-72H64L36 0H1l101-248h38L239 0h-34zm-38-99l-47-123c-12 45-31 82-46 123h93" id="bc"/><path fill="#fff" d="M108 0H70L1-190h34L89-25l56-165h34" id="bd"/><path fill="#fff" d="M33 0v-38h34V0H33" id="be"/><g id="s"><use transform="matrix(0.05,0,0,0.05,0,0)" xlink:href="#bc"/><use transform="matrix(0.05,0,0,0.05,12,0)" xlink:href="#au"/><use transform="matrix(0.05,0,0,0.05,17.95,0)" xlink:href="#ar"/><use transform="matrix(0.05,0,0,0.05,26.950000000000003,0)" xlink:href="#aA"/><use transform="matrix(0.05,0,0,0.05,36.95,0)" xlink:href="#ba"/><use transform="matrix(0.05,0,0,0.05,40.900000000000006,0)" xlink:href="#bd"/><use transform="matrix(0.05,0,0,0.05,49.900000000000006,0)" xlink:href="#aB"/><use transform="matrix(0.05,0,0,0.05,59.900000000000006,0)" xlink:href="#be"/><use transform="matrix(0.05,0,0,0.05,64.9,0)" xlink:href="#av"/><use transform="matrix(0.05,0,0,0.05,74.9,0)" xlink:href="#au"/><use transform="matrix(0.05,0,0,0.05,80.85000000000001,0)" xlink:href="#at"/></g><path fill="#fff" d="M194 0L95-120 63-95V0H30v-248h33v124l119-124h40L117-140 236 0h-42" id="bf"/><g id="t"><use transform="matrix(0.05,0,0,0.05,0,0)" xlink:href="#bf"/><use transform="matrix(0.05,0,0,0.05,12,0)" xlink:href="#aq"/><use transform="matrix(0.05,0,0,0.05,22,0)" xlink:href="#at"/><use transform="matrix(0.05,0,0,0.05,32,0)" xlink:href="#at"/><use transform="matrix(0.05,0,0,0.05,42,0)" xlink:href="#bb"/><use transform="matrix(0.05,0,0,0.05,45.95,0)" xlink:href="#aB"/></g><g id="u"><use transform="matrix(0.05,0,0,0.05,0,0)" xlink:href="#aY"/><use transform="matrix(0.05,0,0,0.05,14,0)" xlink:href="#aZ"/><use transform="matrix(0.05,0,0,0.05,24.65,0)" xlink:href="#bc"/></g><path fill="#fff" d="M135-143c-3-34-86-38-87 0 15 53 115 12 119 90S17 21 10-45l28-5c4 36 97 45 98 0-10-56-113-15-118-90-4-57 82-63 122-42 12 7 21 19 24 35" id="bg"/><g id="v"><use transform="matrix(0.05,0,0,0.05,0,0)" xlink:href="#be"/><use transform="matrix(0.05,0,0,0.05,5,0)" xlink:href="#ar"/><use transform="matrix(0.05,0,0,0.05,14,0)" xlink:href="#bg"/><use transform="matrix(0.05,0,0,0.05,23,0)" xlink:href="#bd"/></g><path fill="#fff" d="M101-251c82-7 93 87 43 132L82-64C71-53 59-42 53-27h129V0H18c2-99 128-94 128-182 0-28-16-43-45-43s-46 15-49 41l-32-3c6-41 34-60 81-64" id="bh"/><path fill="#fff" d="M101-251c68 0 85 55 85 127S166 4 100 4C33 4 14-52 14-124c0-73 17-127 87-127zm-1 229c47 0 54-49 54-102s-4-102-53-102c-51 0-55 48-55 102 0 53 5 102 54 102" id="bi"/><path fill="#fff" d="M27 0v-27h64v-190l-56 39v-29l58-41h29v221h61V0H27" id="bj"/><path fill="#fff" d="M126-127c33 6 58 20 58 59 0 88-139 92-164 29-3-8-5-16-6-25l32-3c6 27 21 44 54 44 32 0 52-15 52-46 0-38-36-46-79-43v-28c39 1 72-4 72-42 0-27-17-43-46-43-28 0-47 15-49 41l-32-3c6-42 35-63 81-64 48-1 79 21 79 65 0 36-21 52-52 59" id="bk"/><path fill="#fff" d="M16-82v-28h88v28H16" id="bl"/><path fill="#fff" d="M134-131c28 9 52 24 51 62-1 50-34 73-85 73S17-19 16-69c0-36 21-54 49-61-75-25-45-126 34-121 46 3 78 18 79 63 0 33-17 51-44 57zm-34-11c31 1 46-15 46-44 0-28-17-43-47-42-29 0-46 13-45 42 1 28 16 44 46 44zm1 122c35 0 51-18 51-52 0-30-18-46-53-46-33 0-51 17-51 47 0 34 19 51 53 51" id="bm"/><g id="w"><use transform="matrix(0.05,0,0,0.05,0,0)" xlink:href="#bh"/><use transform="matrix(0.05,0,0,0.05,10,0)" xlink:href="#bi"/><use transform="matrix(0.05,0,0,0.05,20,0)" xlink:href="#bj"/><use transform="matrix(0.05,0,0,0.05,30,0)" xlink:href="#bk"/><use transform="matrix(0.05,0,0,0.05,40,0)" xlink:href="#bl"/><use transform="matrix(0.05,0,0,0.05,45.95,0)" xlink:href="#bh"/><use transform="matrix(0.05,0,0,0.05,55.95,0)" xlink:href="#bi"/><use transform="matrix(0.05,0,0,0.05,65.95,0)" xlink:href="#bj"/><use transform="matrix(0.05,0,0,0.05,75.95,0)" xlink:href="#bm"/></g><path fill="#fff" d="M232-93c-1 65-40 97-104 97C67 4 28-28 28-90v-158h33c8 89-33 224 67 224 102 0 64-133 71-224h33v155" id="bn"/><path fill="#fff" d="M185-189c-5-48-123-54-124 2 14 75 158 14 163 119 3 78-121 87-175 55-17-10-28-26-33-46l33-7c5 56 141 63 141-1 0-78-155-14-162-118-5-82 145-84 179-34 5 7 8 16 11 25" id="bo"/><path fill="#fff" d="M115-194c55 1 70 41 70 98S169 2 115 4C84 4 66-9 55-30l1 105H24l-1-265h31l2 30c10-21 28-34 59-34zm-8 174c40 0 45-34 45-75s-6-73-45-74c-42 0-51 32-51 76 0 43 10 73 51 73" id="bp"/><path fill="#fff" d="M115-194c53 0 69 39 70 98 0 66-23 100-70 100C84 3 66-7 56-30L54 0H23l1-261h32v101c10-23 28-34 59-34zm-8 174c40 0 45-34 45-75 0-40-5-75-45-74-42 0-51 32-51 76 0 43 10 73 51 73" id="bq"/><g id="x"><use transform="matrix(0.05,0,0,0.05,0,0)" xlink:href="#bn"/><use transform="matrix(0.05,0,0,0.05,12.950000000000001,0)" xlink:href="#ax"/><use transform="matrix(0.05,0,0,0.05,22.950000000000003,0)" xlink:href="#bo"/><use transform="matrix(0.05,0,0,0.05,34.95,0)" xlink:href="#ar"/><use transform="matrix(0.05,0,0,0.05,43.95,0)" xlink:href="#au"/><use transform="matrix(0.05,0,0,0.05,49.900000000000006,0)" xlink:href="#aq"/><use transform="matrix(0.05,0,0,0.05,59.900000000000006,0)" xlink:href="#bp"/><use transform="matrix(0.05,0,0,0.05,69.9,0)" xlink:href="#aq"/><use transform="matrix(0.05,0,0,0.05,79.9,0)" xlink:href="#bq"/><use transform="matrix(0.05,0,0,0.05,89.9,0)" xlink:href="#bb"/><use transform="matrix(0.05,0,0,0.05,93.85000000000001,0)" xlink:href="#aB"/></g><path fill="#3a414a" d="M232-93c-1 65-40 97-104 97C67 4 28-28 28-90v-158h33c8 89-33 224 67 224 102 0 64-133 71-224h33v155" id="br"/><path fill="#3a414a" d="M135-143c-3-34-86-38-87 0 15 53 115 12 119 90S17 21 10-45l28-5c4 36 97 45 98 0-10-56-113-15-118-90-4-57 82-63 122-42 12 7 21 19 24 35" id="bs"/><path fill="#3a414a" d="M100-194c63 0 86 42 84 106H49c0 40 14 67 53 68 26 1 43-12 49-29l28 8c-11 28-37 45-77 45C44 4 14-33 15-96c1-61 26-98 85-98zm52 81c6-60-76-77-97-28-3 7-6 17-6 28h103" id="bt"/><g id="y"><use transform="matrix(0.05,0,0,0.05,0,0)" xlink:href="#br"/><use transform="matrix(0.05,0,0,0.05,12.950000000000001,0)" xlink:href="#bs"/><use transform="matrix(0.05,0,0,0.05,21.950000000000003,0)" xlink:href="#bt"/></g><path fill="#3a414a" d="M190 0L58-211 59 0H30v-248h39L202-35l-2-213h31V0h-41" id="bu"/><path fill="#3a414a" d="M100-194c62-1 85 37 85 99 1 63-27 99-86 99S16-35 15-95c0-66 28-99 85-99zM99-20c44 1 53-31 53-75 0-43-8-75-51-75s-53 32-53 75 10 74 51 75" id="bv"/><g id="z"><use transform="matrix(0.05,0,0,0.05,0,0)" xlink:href="#bu"/><use transform="matrix(0.05,0,0,0.05,12.950000000000001,0)" xlink:href="#bv"/></g><path fill="#fff" d="M30-248c87 1 191-15 191 75 0 78-77 80-158 76V0H30v-248zm33 125c57 0 124 11 124-50 0-59-68-47-124-48v98" id="bw"/><g id="A"><use transform="matrix(0.05,0,0,0.05,0,0)" xlink:href="#bw"/><use transform="matrix(0.05,0,0,0.05,12,0)" xlink:href="#aq"/><use transform="matrix(0.05,0,0,0.05,22,0)" xlink:href="#ax"/><use transform="matrix(0.05,0,0,0.05,32,0)" xlink:href="#ay"/><use transform="matrix(0.05,0,0,0.05,42,0)" xlink:href="#aq"/><use transform="matrix(0.05,0,0,0.05,52,0)" xlink:href="#bg"/></g><path fill="#3a414a" d="M137-103V0h-34v-103L8-248h37l75 118 75-118h37" id="bx"/><g id="B"><use transform="matrix(0.05,0,0,0.05,0,0)" xlink:href="#bx"/><use transform="matrix(0.05,0,0,0.05,10.35,0)" xlink:href="#bt"/><use transform="matrix(0.05,0,0,0.05,20.35,0)" xlink:href="#bs"/></g><g id="C"><use transform="matrix(0.05,0,0,0.05,0,0)" xlink:href="#an"/><use transform="matrix(0.05,0,0,0.05,10.950000000000001,0)" xlink:href="#ao"/><use transform="matrix(0.05,0,0,0.05,22.950000000000003,0)" xlink:href="#ap"/></g><path fill="#fff" d="M190 0L58-211 59 0H30v-248h39L202-35l-2-213h31V0h-41" id="by"/><g id="D"><use transform="matrix(0.05,0,0,0.05,0,0)" xlink:href="#by"/><use transform="matrix(0.05,0,0,0.05,12.950000000000001,0)" xlink:href="#ap"/><use transform="matrix(0.05,0,0,0.05,17.950000000000003,0)" xlink:href="#az"/><use transform="matrix(0.05,0,0,0.05,30.900000000000006,0)" xlink:href="#bo"/></g><g id="E"><use transform="matrix(0.05,0,0,0.05,0,0)" xlink:href="#az"/><use transform="matrix(0.05,0,0,0.05,12.950000000000001,0)" xlink:href="#bb"/><use transform="matrix(0.05,0,0,0.05,16.900000000000002,0)" xlink:href="#aB"/><use transform="matrix(0.05,0,0,0.05,26.900000000000002,0)" xlink:href="#aq"/><use transform="matrix(0.05,0,0,0.05,36.900000000000006,0)" xlink:href="#ax"/></g><path fill="#fff" d="M59-47c-2 24 18 29 38 22v24C64 9 27 4 27-40v-127H5v-23h24l9-43h21v43h35v23H59v120" id="bz"/><g id="F"><use transform="matrix(0.05,0,0,0.05,0,0)" xlink:href="#aC"/><use transform="matrix(0.05,0,0,0.05,12.950000000000001,0)" xlink:href="#aq"/><use transform="matrix(0.05,0,0,0.05,22.950000000000003,0)" xlink:href="#bz"/><use transform="matrix(0.05,0,0,0.05,27.950000000000003,0)" xlink:href="#aB"/></g><path fill="#fff" d="M210-169c-67 3-38 105-44 169h-31v-121c0-29-5-50-35-48C34-165 62-65 56 0H25l-1-190h30c1 10-1 24 2 32 10-44 99-50 107 0 11-21 27-35 58-36 85-2 47 119 55 194h-31v-121c0-29-5-49-35-48" id="bA"/><g id="G"><use transform="matrix(0.05,0,0,0.05,0,0)" xlink:href="#an"/><use transform="matrix(0.05,0,0,0.05,10.950000000000001,0)" xlink:href="#av"/><use transform="matrix(0.05,0,0,0.05,20.950000000000003,0)" xlink:href="#au"/><use transform="matrix(0.05,0,0,0.05,26.900000000000002,0)" xlink:href="#bA"/><use transform="matrix(0.05,0,0,0.05,41.85,0)" xlink:href="#aq"/><use transform="matrix(0.05,0,0,0.05,51.85,0)" xlink:href="#bz"/><use transform="matrix(0.05,0,0,0.05,56.85,0)" xlink:href="#bz"/><use transform="matrix(0.05,0,0,0.05,61.85,0)" xlink:href="#ba"/><use transform="matrix(0.05,0,0,0.05,65.8,0)" xlink:href="#ax"/><use transform="matrix(0.05,0,0,0.05,75.8,0)" xlink:href="#at"/></g><path fill="#fff" d="M9 0v-24l116-142H16v-24h144v24L44-24h123V0H9" id="bB"/><g id="H"><use transform="matrix(0.05,0,0,0.05,0,0)" xlink:href="#bo"/><use transform="matrix(0.05,0,0,0.05,12,0)" xlink:href="#aB"/><use transform="matrix(0.05,0,0,0.05,22,0)" xlink:href="#au"/><use transform="matrix(0.05,0,0,0.05,27.950000000000003,0)" xlink:href="#ba"/><use transform="matrix(0.05,0,0,0.05,31.899999999999995,0)" xlink:href="#aq"/><use transform="matrix(0.05,0,0,0.05,41.9,0)" xlink:href="#bb"/><use transform="matrix(0.05,0,0,0.05,45.85,0)" xlink:href="#ba"/><use transform="matrix(0.05,0,0,0.05,49.800000000000004,0)" xlink:href="#bB"/><use transform="matrix(0.05,0,0,0.05,58.800000000000004,0)" xlink:href="#aB"/></g><g id="I"><use transform="matrix(0.05,0,0,0.05,0,0)" xlink:href="#ap"/><use transform="matrix(0.05,0,0,0.05,5,0)" xlink:href="#ax"/><use transform="matrix(0.05,0,0,0.05,15,0)" xlink:href="#ar"/><use transform="matrix(0.05,0,0,0.05,24,0)" xlink:href="#ba"/><use transform="matrix(0.05,0,0,0.05,27.950000000000003,0)" xlink:href="#ay"/><use transform="matrix(0.05,0,0,0.05,37.95,0)" xlink:href="#aB"/><use transform="matrix(0.05,0,0,0.05,47.95,0)" xlink:href="#ax"/><use transform="matrix(0.05,0,0,0.05,57.95,0)" xlink:href="#bz"/><use transform="matrix(0.05,0,0,0.05,62.95,0)" xlink:href="#bg"/></g><g id="J"><use transform="matrix(0.05,0,0,0.05,0,0)" xlink:href="#bw"/><use transform="matrix(0.05,0,0,0.05,12,0)" xlink:href="#aq"/><use transform="matrix(0.05,0,0,0.05,22,0)" xlink:href="#au"/><use transform="matrix(0.05,0,0,0.05,27.950000000000003,0)" xlink:href="#bz"/><use transform="matrix(0.05,0,0,0.05,32.95,0)" xlink:href="#ba"/><use transform="matrix(0.05,0,0,0.05,36.900000000000006,0)" xlink:href="#ar"/><use transform="matrix(0.05,0,0,0.05,45.900000000000006,0)" xlink:href="#ba"/><use transform="matrix(0.05,0,0,0.05,49.85000000000001,0)" xlink:href="#bp"/><use transform="matrix(0.05,0,0,0.05,59.85,0)" xlink:href="#aq"/><use transform="matrix(0.05,0,0,0.05,69.85000000000001,0)" xlink:href="#ax"/><use transform="matrix(0.05,0,0,0.05,79.85000000000001,0)" xlink:href="#bz"/><use transform="matrix(0.05,0,0,0.05,84.85000000000001,0)" xlink:href="#bg"/></g><g id="K"><use transform="matrix(0.05,0,0,0.05,0,0)" xlink:href="#ap"/><use transform="matrix(0.05,0,0,0.05,5,0)" xlink:href="#ax"/><use transform="matrix(0.05,0,0,0.05,15,0)" xlink:href="#ar"/><use transform="matrix(0.05,0,0,0.05,24,0)" xlink:href="#ba"/><use transform="matrix(0.05,0,0,0.05,27.950000000000003,0)" xlink:href="#ay"/><use transform="matrix(0.05,0,0,0.05,37.95,0)" xlink:href="#aB"/><use transform="matrix(0.05,0,0,0.05,47.95,0)" xlink:href="#ax"/><use transform="matrix(0.05,0,0,0.05,57.95,0)" xlink:href="#bz"/><use transform="matrix(0.05,0,0,0.05,62.95,0)" xlink:href="#bg"/></g><path fill="#fff" d="M233-177c-1 41-23 64-60 70L243 0h-38l-65-103H63V0H30v-248c88 3 205-21 203 71zM63-129c60-2 137 13 137-47 0-61-80-42-137-45v92" id="bC"/><path fill="#fff" d="M30 0v-248h33v221h125V0H30" id="bD"/><g id="L"><use transform="matrix(0.05,0,0,0.05,0,0)" xlink:href="#bn"/><use transform="matrix(0.05,0,0,0.05,12.950000000000001,0)" xlink:href="#bC"/><use transform="matrix(0.05,0,0,0.05,25.900000000000002,0)" xlink:href="#bD"/><use transform="matrix(0.05,0,0,0.05,35.900000000000006,0)" xlink:href="#bg"/></g><path fill="#3a414a" d="M127-220V0H93v-220H8v-28h204v28h-85" id="bE"/><g id="M"><use transform="matrix(0.05,0,0,0.05,0,0)" xlink:href="#bE"/><use transform="matrix(0.05,0,0,0.05,8.950000000000001,0)" xlink:href="#bv"/></g><path fill="#3a414a" d="M30-248c87 1 191-15 191 75 0 78-77 80-158 76V0H30v-248zm33 125c57 0 124 11 124-50 0-59-68-47-124-48v98" id="bF"/><path fill="#3a414a" d="M59-47c-2 24 18 29 38 22v24C64 9 27 4 27-40v-127H5v-23h24l9-43h21v43h35v23H59v120" id="bG"/><path fill="#3a414a" d="M177-190C167-65 218 103 67 71c-23-6-38-20-44-43l32-5c15 47 100 32 89-28v-30C133-14 115 1 83 1 29 1 15-40 15-95c0-56 16-97 71-98 29-1 48 16 59 35 1-10 0-23 2-32h30zM94-22c36 0 50-32 50-73 0-42-14-75-50-75-39 0-46 34-46 75s6 73 46 73" id="bH"/><path fill="#3a414a" d="M114-163C36-179 61-72 57 0H25l-1-190h30c1 12-1 29 2 39 6-27 23-49 58-41v29" id="bI"/><g id="N"><use transform="matrix(0.05,0,0,0.05,0,0)" xlink:href="#bF"/><use transform="matrix(0.05,0,0,0.05,12,0)" xlink:href="#bv"/><use transform="matrix(0.05,0,0,0.05,22,0)" xlink:href="#bs"/><use transform="matrix(0.05,0,0,0.05,31,0)" xlink:href="#bG"/><use transform="matrix(0.05,0,0,0.05,36,0)" xlink:href="#bH"/><use transform="matrix(0.05,0,0,0.05,46,0)" xlink:href="#bI"/><use transform="matrix(0.05,0,0,0.05,51.95,0)" xlink:href="#bt"/><use transform="matrix(0.05,0,0,0.05,61.95,0)" xlink:href="#bs"/></g><path fill="#3a414a" d="M141-36C126-15 110 5 73 4 37 3 15-17 15-53c-1-64 63-63 125-63 3-35-9-54-41-54-24 1-41 7-42 31l-33-3c5-37 33-52 76-52 45 0 72 20 72 64v82c-1 20 7 32 28 27v20c-31 9-61-2-59-35zM48-53c0 20 12 33 32 33 41-3 63-29 60-74-43 2-92-5-92 41" id="bJ"/><path fill="#3a414a" d="M115-194c53 0 69 39 70 98 0 66-23 100-70 100C84 3 66-7 56-30L54 0H23l1-261h32v101c10-23 28-34 59-34zm-8 174c40 0 45-34 45-75 0-40-5-75-45-74-42 0-51 32-51 76 0 43 10 73 51 73" id="bK"/><path fill="#3a414a" d="M24 0v-261h32V0H24" id="bL"/><g id="O"><use transform="matrix(0.05,0,0,0.05,0,0)" xlink:href="#bE"/><use transform="matrix(0.05,0,0,0.05,8.950000000000001,0)" xlink:href="#bJ"/><use transform="matrix(0.05,0,0,0.05,18.950000000000003,0)" xlink:href="#bK"/><use transform="matrix(0.05,0,0,0.05,28.950000000000003,0)" xlink:href="#bL"/><use transform="matrix(0.05,0,0,0.05,32.900000000000006,0)" xlink:href="#bt"/><use transform="matrix(0.05,0,0,0.05,42.900000000000006,0)" xlink:href="#bs"/></g><path fill="#fff" d="M153-248C145-148 188 4 80 4 36 3 13-21 6-62l32-5c4 25 16 42 43 43 27 0 39-20 39-49v-147H72v-28h81" id="bM"/><g id="P"><use transform="matrix(0.056172839506172835,0,0,0.056172839506172835,0,0)" xlink:href="#bM"/><use transform="matrix(0.056172839506172835,0,0,0.056172839506172835,10.11111111111111,0)" xlink:href="#av"/><use transform="matrix(0.056172839506172835,0,0,0.056172839506172835,21.345679012345677,0)" xlink:href="#ba"/><use transform="matrix(0.056172839506172835,0,0,0.056172839506172835,25.78333333333333,0)" xlink:href="#ax"/></g><path fill="#3a414a" d="M30-248c118-7 216 8 213 122C240-48 200 0 122 0H30v-248zM63-27c89 8 146-16 146-99s-60-101-146-95v194" id="bN"/><g id="Q"><use transform="matrix(0.05,0,0,0.05,0,0)" xlink:href="#bN"/><use transform="matrix(0.05,0,0,0.05,12.950000000000001,0)" xlink:href="#bJ"/><use transform="matrix(0.05,0,0,0.05,22.950000000000003,0)" xlink:href="#bG"/><use transform="matrix(0.05,0,0,0.05,27.950000000000003,0)" xlink:href="#bt"/></g><path fill="#3a414a" d="M33 0v-248h34V0H33" id="bO"/><path fill="#3a414a" d="M117-194c89-4 53 116 60 194h-32v-121c0-31-8-49-39-48C34-167 62-67 57 0H25l-1-190h30c1 10-1 24 2 32 11-22 29-35 61-36" id="bP"/><path fill="#3a414a" d="M96-169c-40 0-48 33-48 73s9 75 48 75c24 0 41-14 43-38l32 2c-6 37-31 61-74 61-59 0-76-41-82-99-10-93 101-131 147-64 4 7 5 14 7 22l-32 3c-4-21-16-35-41-35" id="bQ"/><path fill="#3a414a" d="M24-231v-30h32v30H24zM24 0v-190h32V0H24" id="bR"/><path fill="#3a414a" d="M85-194c31 0 48 13 60 33l-1-100h32l1 261h-30c-2-10 0-23-3-31C134-8 116 4 85 4 32 4 16-35 15-94c0-66 23-100 70-100zm9 24c-40 0-46 34-46 75 0 40 6 74 45 74 42 0 51-32 51-76 0-42-9-74-50-73" id="bS"/><g id="R"><use transform="matrix(0.05,0,0,0.05,0,0)" xlink:href="#bO"/><use transform="matrix(0.05,0,0,0.05,5,0)" xlink:href="#bP"/><use transform="matrix(0.05,0,0,0.05,15,0)" xlink:href="#bQ"/><use transform="matrix(0.05,0,0,0.05,24,0)" xlink:href="#bR"/><use transform="matrix(0.05,0,0,0.05,27.950000000000003,0)" xlink:href="#bS"/><use transform="matrix(0.05,0,0,0.05,37.95,0)" xlink:href="#bt"/><use transform="matrix(0.05,0,0,0.05,47.95,0)" xlink:href="#bP"/><use transform="matrix(0.05,0,0,0.05,57.95,0)" xlink:href="#bG"/><use transform="matrix(0.05,0,0,0.05,62.95,0)" xlink:href="#bO"/><use transform="matrix(0.05,0,0,0.05,67.95,0)" xlink:href="#bN"/></g><g id="S"><use transform="matrix(0.05,0,0,0.05,0,0)" xlink:href="#bc"/><use transform="matrix(0.05,0,0,0.05,11.65,0)" xlink:href="#bd"/><use transform="matrix(0.05,0,0,0.05,20.65,0)" xlink:href="#aq"/><use transform="matrix(0.05,0,0,0.05,30.649999999999995,0)" xlink:href="#ba"/><use transform="matrix(0.05,0,0,0.05,34.6,0)" xlink:href="#bb"/><use transform="matrix(0.05,0,0,0.05,38.550000000000004,0)" xlink:href="#aq"/><use transform="matrix(0.05,0,0,0.05,48.550000000000004,0)" xlink:href="#bq"/><use transform="matrix(0.05,0,0,0.05,58.550000000000004,0)" xlink:href="#bb"/><use transform="matrix(0.05,0,0,0.05,62.5,0)" xlink:href="#aB"/></g><path fill="#fff" d="M101-234c-31-9-42 10-38 44h38v23H63V0H32v-167H5v-23h27c-7-52 17-82 69-68v24" id="bT"/><g id="T"><use transform="matrix(0.05,0,0,0.05,0,0)" xlink:href="#bT"/><use transform="matrix(0.05,0,0,0.05,5,0)" xlink:href="#av"/><use transform="matrix(0.05,0,0,0.05,15,0)" xlink:href="#au"/></g><path fill="#fff" d="M179-190L93 31C79 59 56 82 12 73V49c39 6 53-20 64-50L1-190h34L92-34l54-156h33" id="bU"/><g id="U"><use transform="matrix(0.05,0,0,0.05,0,0)" xlink:href="#bc"/><use transform="matrix(0.05,0,0,0.05,12,0)" xlink:href="#ax"/><use transform="matrix(0.05,0,0,0.05,22,0)" xlink:href="#aq"/><use transform="matrix(0.05,0,0,0.05,32,0)" xlink:href="#bb"/><use transform="matrix(0.05,0,0,0.05,35.95,0)" xlink:href="#bU"/><use transform="matrix(0.05,0,0,0.05,44.95,0)" xlink:href="#bg"/><use transform="matrix(0.05,0,0,0.05,53.95,0)" xlink:href="#ba"/><use transform="matrix(0.05,0,0,0.05,57.900000000000006,0)" xlink:href="#bg"/></g><g id="V"><use transform="matrix(0.05,0,0,0.05,0,0)" xlink:href="#av"/><use transform="matrix(0.05,0,0,0.05,10,0)" xlink:href="#au"/></g><g id="W"><use transform="matrix(0.05,0,0,0.05,0,0)" xlink:href="#bp"/><use transform="matrix(0.05,0,0,0.05,10,0)" xlink:href="#au"/><use transform="matrix(0.05,0,0,0.05,15.949999999999998,0)" xlink:href="#av"/><use transform="matrix(0.05,0,0,0.05,25.950000000000003,0)" xlink:href="#ar"/><use transform="matrix(0.05,0,0,0.05,34.95,0)" xlink:href="#aB"/><use transform="matrix(0.05,0,0,0.05,44.95,0)" xlink:href="#bg"/><use transform="matrix(0.05,0,0,0.05,53.95,0)" xlink:href="#bg"/><use transform="matrix(0.05,0,0,0.05,62.95,0)" xlink:href="#ba"/><use transform="matrix(0.05,0,0,0.05,66.9,0)" xlink:href="#ax"/><use transform="matrix(0.05,0,0,0.05,76.9,0)" xlink:href="#at"/></g></defs></g></svg>